# This file uses centimeters as units for non-parametric coordinates.

mtllib roof.mtl
g default
v -2.314488 0.219040 2.314488
v 2.314488 0.219040 2.314488
v -1.176935 2.167670 1.176935
v 1.176935 2.167670 1.176935
v -1.176935 2.167670 -1.176935
v 1.176935 2.167670 -1.176935
v -2.314488 0.219040 -2.314488
v 2.314488 0.219040 -2.314488
v -1.278439 0.187775 1.278439
v 1.278439 0.187775 1.278439
v -1.278439 0.187775 -1.278439
v 1.278439 0.187775 -1.278439
v -1.265379 1.053392 1.265379
v 1.265379 1.053392 1.265379
v -1.265379 1.053392 -1.265379
v 1.265379 1.053392 -1.265379
vt 0.375000 0.000000
vt 0.625000 0.000000
vt 0.375000 0.250000
vt 0.625000 0.250000
vt 0.250000 0.375000
vt 0.750000 0.375000
vt 0.375000 0.750000
vt 0.625000 0.750000
vt 0.875000 0.000000
vt 0.125000 0.000000
vt 0.000000 0.000000
vt 1.000000 0.000000
vt 1.000000 1.000000
vt 0.000000 1.000000
vt 0.000000 0.000000
vt 1.000000 0.000000
vt 1.000000 1.000000
vt 0.000000 1.000000
vt 0.000000 0.000000
vt 1.000000 0.000000
vt 1.000000 1.000000
vt 0.000000 1.000000
vt 0.000000 0.000000
vt 1.000000 0.000000
vt 1.000000 1.000000
vt 0.000000 1.000000
vt 0.000000 0.000000
vt 1.000000 0.000000
vt 0.500000 1.000000
vt 0.500000 1.000000
vt 0.000000 0.000000
vt 1.000000 0.000000
vt 0.500000 1.000000
vt 0.500000 1.000000
vt 0.000000 0.000000
vt 1.000000 0.000000
vt 0.000000 0.000000
vt 1.000000 0.000000
vn 0.000000 0.504153 0.863614
vn 0.000000 0.504153 0.863614
vn 0.000000 0.504153 0.863614
vn 0.000000 0.504153 0.863614
vn 0.000000 0.504153 -0.863614
vn 0.000000 0.504153 -0.863614
vn 0.000000 0.504153 -0.863614
vn 0.000000 0.504153 -0.863614
vn 0.863614 0.504153 0.000000
vn 0.863614 0.504153 0.000000
vn 0.863614 0.504153 0.000000
vn 0.863614 0.504153 0.000000
vn -0.863614 0.504153 0.000000
vn -0.863614 0.504153 0.000000
vn -0.863614 0.504153 0.000000
vn -0.863614 0.504153 0.000000
vn 0.000000 1.000000 0.000000
vn 0.000000 1.000000 0.000000
vn 0.000000 1.000000 0.000000
vn 0.000000 1.000000 0.000000
vn 0.000000 -0.999545 0.030163
vn 0.000000 -0.999545 0.030163
vn 0.000000 -0.999545 0.030163
vn 0.000000 -0.999545 0.030163
vn 0.000000 -0.999545 -0.030163
vn 0.000000 -0.999545 -0.030163
vn 0.000000 -0.999545 -0.030163
vn 0.000000 -0.999545 -0.030163
vn -0.030163 -0.999545 0.000000
vn -0.030163 -0.999545 0.000000
vn -0.030163 -0.999545 0.000000
vn -0.030163 -0.999545 0.000000
vn 0.030163 -0.999545 0.000000
vn 0.030163 -0.999545 0.000000
vn 0.030163 -0.999545 0.000000
vn 0.030163 -0.999545 0.000000
vn 0.000000 -0.015086 -0.999886
vn 0.000000 -0.015086 -0.999886
vn 0.000000 -0.015086 -0.999886
vn 0.000000 -0.015086 -0.999886
vn 0.000000 -0.015086 0.999886
vn 0.000000 -0.015086 0.999886
vn 0.000000 -0.015086 0.999886
vn 0.000000 -0.015086 0.999886
vn 0.999886 -0.015086 0.000000
vn 0.999886 -0.015086 0.000000
vn 0.999886 -0.015086 0.000000
vn 0.999886 -0.015086 0.000000
vn -0.999886 -0.015086 0.000000
vn -0.999886 -0.015086 0.000000
vn -0.999886 -0.015086 0.000000
vn -0.999886 -0.015086 0.000000
vn 0.000000 -1.000000 0.000000
vn 0.000000 -1.000000 0.000000
vn 0.000000 -1.000000 0.000000
vn 0.000000 -1.000000 0.000000
s off
g pCube1
usemtl initialShadingGroup
f 1/1/1 2/2/2 4/4/3 3/3/4
f 5/5/5 6/6/6 8/8/7 7/7/8
f 2/2/9 8/9/10 6/6/11 4/4/12
f 7/10/13 1/1/14 3/3/15 5/5/16
f 3/3/17 4/4/18 6/6/19 5/5/20
f 2/11/21 1/12/22 9/13/23 10/14/24
f 7/15/25 8/16/26 12/17/27 11/18/28
f 1/19/29 7/20/30 11/21/31 9/22/32
f 8/23/33 2/24/34 10/25/35 12/26/36
f 10/27/37 9/28/38 13/29/39 14/30/40
f 11/31/41 12/32/42 16/33/43 15/34/44
f 9/35/45 11/36/46 15/34/47 13/29/48
f 12/37/49 10/38/50 14/30/51 16/33/52
f 14/30/53 13/29/54 15/34/55 16/33/56
